<svg width="1440" height="704" viewBox="0 0 1440 704" fill="none" xmlns="http://www.w3.org/2000/svg">
<path d="M0 0H1440V680C1440 691.314 1440 696.971 1436.49 700.485C1432.97 704 1427.31 704 1416 704H24C12.6863 704 7.02944 704 3.51472 700.485C0 696.971 0 691.314 0 680V0Z" fill="#D9D9D9"/>
<path d="M0 0H1440V680C1440 691.314 1440 696.971 1436.49 700.485C1432.97 704 1427.31 704 1416 704H24C12.6863 704 7.02944 704 3.51472 700.485C0 696.971 0 691.314 0 680V0Z" fill="#D9D9D9"/>
<path d="M0 0H1440V680C1440 691.314 1440 696.971 1436.49 700.485C1432.97 704 1427.31 704 1416 704H24C12.6863 704 7.02944 704 3.51472 700.485C0 696.971 0 691.314 0 680V0Z" fill="#D9D9D9"/>
<path d="M0 0H1440V680C1440 691.314 1440 696.971 1436.49 700.485C1432.97 704 1427.31 704 1416 704H24C12.6863 704 7.02944 704 3.51472 700.485C0 696.971 0 691.314 0 680V0Z" fill="#EBBEFF" fill-opacity="0.67"/>
</svg>
