<svg width="206" height="161" viewBox="0 0 206 161" fill="none" xmlns="http://www.w3.org/2000/svg">
<path d="M103.5 0L87.5 56L28.5 52.5L82 84C71.3333 107.5 50.2 155 51 157C51.8 159 90.8333 117.667 108 101.5L187.5 157L142.5 90L200.5 25L127 56L103.5 0Z" fill="#FFC56F"/>
<path d="M148 1L141 10L130.5 6.5L137.5 15.5L135 23.5L142.5 17.5L151 27L148 15.5L158 8.5L148 10V1Z" fill="#FFA9CD"/>
<path d="M40.5909 80L38.5545 82.7692L35.5 81.6923L37.5364 84.4615L36.8091 86.9231L38.9909 85.0769L41.4636 88L40.5909 84.4615L43.5 82.3077L40.5909 82.7692V80Z" fill="#FFC56F"/>
<path d="M135.91 155.219L139.299 155.364L141.239 159.255L141.902 155.66L146.498 155.811L142.791 154.103L144.03 148.976L140.379 151.442L137.925 150.077L138.982 153.006L135.91 155.219Z" fill="#FFA9CD"/>
<path d="M20.3999 124.607L22.5626 124.7L23.8006 127.183L24.2238 124.889L27.1572 124.985L24.7915 123.895L25.5823 120.623L23.2519 122.197L21.6857 121.326L22.3606 123.195L20.3999 124.607Z" fill="#FFC56F"/>
<path d="M0 96.5L22.5 98L29 83L33 96.5L51.5 94.5L36 106.5L41.5 125.5L29 113.5L5 124L17.5 108.5L0 96.5Z" fill="#FFA9CD"/>
<path d="M125.745 155.656L126.986 148.632L122.491 146.075L126.873 145.279L126.876 139.393L130.12 144.677L136.283 143.597L132.082 147.118L134.563 155.023L130.117 150.563L125.745 155.656Z" fill="#FFC56F"/>
<path d="M179.815 88L185.308 93.4748L192.738 90.5764L188.538 97.6615L195 103.458L188.538 101.848C187.031 103.673 184.015 107.452 184.015 107.967C184.015 108.482 182.508 102.814 181.754 100.56L174 97.6615L181.754 96.6953L179.815 88Z" fill="#FFA9CD"/>
<path d="M200 72L200.468 74.6607H205.5L202.338 77.1501L205.211 80.9189L201.158 79.1351L198.263 83L198.553 78.5405L194.5 76.8528L198.263 75.5676L200 72Z" fill="#FFC56F"/>
<path d="M54.664 13.553L54.2752 19.782L59.9716 22.8008L53.4632 23.9532L53.3948 30.9434L49.5 25C47.5974 25.0366 45.1499 26.328 44.8388 26.5984C44.5277 26.8689 47.1492 22.9729 48.11 21.3292L45.7421 15.0707L50.4434 19.3009L54.664 13.553Z" fill="#FFC56F"/>
<path d="M39.6 29L37.8 31.5714L34.5 31L37.2 33.5714L36.6 37L38.7 35L43.2 36.1429L40.8 34.1429L43.5 30.7143L40.2 31.8571L39.6 29Z" fill="#FFA9CD"/>
<path d="M92.5 66C97.4671 75.7093 100.678 76.8614 107.5 67.9115" stroke="#050A26" stroke-width="2"/>
<path fill-rule="evenodd" clip-rule="evenodd" d="M95.2707 53.8626C83.9352 72.2031 61.3762 69.4969 57 45L97.8101 48.9418C97.5898 49.4575 97.3618 49.9615 97.1266 50.4536C98.492 50.2679 99.8179 50.2225 101.155 50.342C102.988 50.5057 104.789 50.9744 106.698 51.7558C106.654 51.506 106.612 51.2541 106.572 51L147.464 53.9797C137.367 78.4652 113.759 77.6957 107.531 55.4378C105.006 54.1603 102.922 53.5118 100.888 53.33C99.1384 53.1737 97.3534 53.3556 95.2707 53.8626Z" fill="#050A26"/>
<mask id="mask0_6_434" style="mask-type:alpha" maskUnits="userSpaceOnUse" x="57" y="45" width="91" height="28">
<path fill-rule="evenodd" clip-rule="evenodd" d="M95.2707 53.8626C83.9352 72.2031 61.3762 69.4969 57 45L97.8101 48.9418C97.5898 49.4575 97.3618 49.9615 97.1266 50.4536C98.492 50.2679 99.8179 50.2225 101.155 50.342C102.988 50.5057 104.789 50.9744 106.698 51.7558C106.654 51.506 106.612 51.2541 106.572 51L147.464 53.9797C137.367 78.4652 113.759 77.6957 107.531 55.4378C105.006 54.1603 102.922 53.5118 100.888 53.33C99.1384 53.1737 97.3534 53.3556 95.2707 53.8626Z" fill="#050A26"/>
</mask>
<g mask="url(#mask0_6_434)">
<rect x="134.383" y="49.0789" width="5" height="28.6298" transform="rotate(38.0581 134.383 49.0789)" fill="white" fill-opacity="0.9"/>
<rect x="85.3831" y="43" width="5" height="28.6298" transform="rotate(38.0581 85.3831 43)" fill="white" fill-opacity="0.9"/>
<rect x="81.3831" y="43" width="1.65383" height="28.6298" transform="rotate(38.0581 81.3831 43)" fill="white" fill-opacity="0.9"/>
<rect x="141.383" y="52" width="1.65383" height="28.6298" transform="rotate(38.0581 141.383 52)" fill="white" fill-opacity="0.9"/>
</g>
</svg>
